<svg width="22" height="22" viewBox="0 0 22 22" fill="none" xmlns="http://www.w3.org/2000/svg">
<g clip-path="url(#clip0)">
<path fill-rule="evenodd" clip-rule="evenodd" d="M11.643 11.8983C11.3025 12.5776 10.7195 13.0148 10.0879 13.1624C9.99259 13.1624 9.84638 13.2105 9.70017 13.2105C8.63271 13.2105 8.00159 12.3846 8.00159 11.171C8.00159 9.61537 8.92376 8.888 10.0879 8.54654C10.7195 8.40125 11.4492 8.35221 12.177 8.35221V8.93567C12.177 10.0526 12.2251 10.9262 11.643 11.8983ZM12.177 6.11967C11.5459 6.16779 10.8162 6.21592 10.0879 6.31125C8.97188 6.45883 7.85584 6.65317 6.93459 7.09042C5.13792 7.81917 3.92334 9.37292 3.92334 11.655C3.92334 14.5228 5.76767 15.9784 8.10013 15.9784C8.87609 15.9784 9.50721 15.8803 10.0879 15.7364C11.0128 15.444 11.7879 14.9096 12.71 13.9375C13.2445 14.6662 13.3916 15.0077 14.3128 15.7845C14.5558 15.8803 14.7987 15.8803 14.9916 15.7364C15.5751 15.2497 16.5958 14.3752 17.1288 13.8893C17.3718 13.6955 17.3241 13.4035 17.1765 13.1624C16.6435 12.4818 16.1081 11.8983 16.1081 10.587V6.21546C16.1081 4.37021 16.2557 2.66979 14.8958 1.408C13.7798 0.389583 12.0313 0 10.6714 0H10.0879C7.61384 0.143458 4.99309 1.21275 4.40826 4.27304C4.31109 4.66263 4.60351 4.80746 4.79784 4.85513L7.51667 5.19567C7.80771 5.14663 7.95392 4.90325 8.00159 4.66263C8.24359 3.59379 9.11809 3.05938 10.0879 2.96083H10.2836C10.8666 2.96083 11.4982 3.20421 11.8369 3.69096C12.2251 4.27304 12.177 5.05083 12.177 5.73146V6.11967Z" fill="#343B45"/>
<path fill-rule="evenodd" clip-rule="evenodd" d="M21.9973 16.4753V16.4744C21.9872 16.2452 21.9391 16.0706 21.8437 15.9253L21.8332 15.9115L21.8217 15.8969C21.7246 15.791 21.6315 15.7506 21.5307 15.7066C21.2291 15.5902 20.7905 15.5279 20.2629 15.527C19.8839 15.527 19.4659 15.5632 19.0456 15.6553L19.0442 15.6264L18.6212 15.7676L18.6134 15.7713L18.3741 15.8492V15.8593C18.1006 15.9728 17.8415 16.1183 17.6023 16.2929C17.4547 16.4029 17.3333 16.5495 17.3264 16.7732C17.3264 16.8387 17.3407 16.9035 17.3684 16.9629C17.3962 17.0223 17.4366 17.0749 17.4868 17.1169C17.5418 17.1608 17.6052 17.1928 17.6731 17.2111C17.741 17.2294 17.8119 17.2335 17.8814 17.2233L17.9021 17.2224L17.9176 17.2196C18.1248 17.1756 18.4264 17.1458 18.7793 17.0968C19.0818 17.0629 19.4026 17.0386 19.6808 17.0386C19.8775 17.0372 20.0544 17.0514 20.1758 17.0771C20.2281 17.0866 20.2787 17.1035 20.3262 17.1275C20.3357 17.1674 20.3396 17.2084 20.3376 17.2494C20.3404 17.4822 20.2423 17.9144 20.1062 18.3366C19.9742 18.7582 19.8138 19.1813 19.7079 19.4622C19.6801 19.53 19.6656 19.6025 19.6653 19.6758C19.6625 19.7886 19.7093 19.9256 19.8073 20.0164C19.9036 20.1066 20.0273 20.1429 20.1309 20.1429H20.136C20.2913 20.1415 20.4233 20.0796 20.537 19.9902C21.6109 19.025 21.9844 17.4822 22 16.6137L21.9973 16.4753ZM18.8141 17.8136C18.7009 17.8132 18.5891 17.8382 18.4869 17.8869C18.3691 17.9337 18.2486 17.9882 18.1349 18.0364L17.9681 18.106L17.7508 18.1931V18.1954C15.3904 19.1533 12.9108 19.7148 10.6159 19.7638C10.5316 19.7666 10.4463 19.7666 10.3648 19.7666C6.75585 19.7689 3.81197 18.0946 0.841973 16.4446C0.745566 16.3919 0.637835 16.3635 0.528014 16.3616C0.394639 16.3616 0.257598 16.412 0.157681 16.5051C0.107719 16.5526 0.0679716 16.6099 0.0408642 16.6733C0.0137567 16.7367 -0.000142553 16.805 1.441e-05 16.874C-0.00136059 17.0537 0.0958061 17.2196 0.231473 17.3269C3.01906 19.7482 6.07431 21.9973 10.1842 22C10.2644 22 10.346 21.9973 10.4271 21.9964C13.0414 21.9377 15.9972 21.054 18.2921 19.6126L18.3058 19.6034C18.6137 19.4197 18.9089 19.2156 19.1895 18.9924C19.3655 18.8618 19.4874 18.6574 19.4874 18.4452C19.4796 18.0684 19.1597 17.8136 18.8146 17.8136H18.8141Z" fill="#FF9A00"/>
</g>
<defs>
<clipPath id="clip0">
<rect width="22" height="22" fill="white"/>
</clipPath>
</defs>
</svg>
