<svg width="15" height="15" viewBox="0 0 15 15" fill="none" xmlns="http://www.w3.org/2000/svg">
<path d="M3.42247 4.87305V14.9993H0.18547V4.87305H3.42247ZM3.62827 1.7468C3.62887 1.76492 3.62947 1.78617 3.62947 1.80805C3.62947 2.27617 3.43867 2.69742 3.13387 2.99242L3.13267 2.99305C2.80567 3.3043 2.36827 3.49492 1.88767 3.49492C1.85827 3.49492 1.82827 3.4943 1.79887 3.49305H1.80307H1.78327C1.75867 3.4943 1.72987 3.49492 1.70107 3.49492C1.23067 3.49492 0.80347 3.30367 0.48607 2.99242L0.48667 2.99305C0.18427 2.68805 -0.00292969 2.2618 -0.00292969 1.78992C-0.00292969 1.77492 -0.00292969 1.75992 -0.00232969 1.7443V1.7468C-0.00292969 1.73367 -0.00292969 1.71867 -0.00292969 1.70367C-0.00292969 1.22742 0.19147 0.798672 0.50167 0.498047L0.50287 0.497422C0.82927 0.188047 1.26547 -0.00195312 1.74367 -0.00195312C1.77127 -0.00195312 1.79827 -0.00132813 1.82587 -7.81254e-05H1.82227C1.84807 -0.00132813 1.87747 -0.00195312 1.90807 -0.00195312C2.37907 -0.00195312 2.80807 0.187422 3.12847 0.496797L3.12727 0.495547C3.43627 0.806172 3.62827 1.24117 3.62827 1.72305V1.7493V1.74805V1.7468ZM15.0655 9.19679V14.9993H11.8387V9.58367C11.8417 9.5343 11.8429 9.47679 11.8429 9.41929C11.8429 8.85929 11.6935 8.33617 11.4337 7.88992L11.4409 7.90305C11.1847 7.53055 10.7707 7.29117 10.3033 7.29117C10.2673 7.29117 10.2313 7.29242 10.1953 7.29555H10.2001C10.1839 7.29492 10.1653 7.2943 10.1467 7.2943C9.77467 7.2943 9.43267 7.42742 9.16207 7.65055L9.16567 7.64805C8.89387 7.87742 8.68087 8.17055 8.54647 8.50742L8.54167 8.5218C8.47207 8.74367 8.43247 8.99867 8.43247 9.26367C8.43247 9.29367 8.43307 9.32367 8.43427 9.35367V9.34929V15.0005H5.20747C5.22067 12.2826 5.22727 10.0789 5.22727 8.38929C5.22727 6.69971 5.22407 5.69159 5.21767 5.36492L5.20807 4.8743H8.43487V6.34555H8.41507C8.54347 6.12992 8.67607 5.94305 8.82187 5.76805L8.81707 5.77367C8.98567 5.58055 9.16687 5.40617 9.36187 5.24992L9.37147 5.24242C9.61387 5.04805 9.89827 4.89555 10.2067 4.80242L10.2247 4.79805C10.5475 4.69742 10.9189 4.6393 11.3029 4.6393H11.3503H11.3479C11.3905 4.63742 11.4403 4.63617 11.4901 4.63617C12.4987 4.63617 13.4071 5.08242 14.0437 5.79617L14.0455 5.79867C14.7263 6.572 15.0667 7.7045 15.0667 9.19617L15.0655 9.19679Z" fill="#FEFEFE"/>
</svg>
