<svg width="30" height="30" viewBox="0 0 30 30" fill="none" xmlns="http://www.w3.org/2000/svg">
<path d="M16.4062 8.4375V18.75C16.4079 20.2413 17.0011 21.6711 18.0556 22.7256C19.1102 23.7801 20.5399 24.3733 22.0312 24.375C22.2799 24.375 22.5183 24.2762 22.6942 24.1004C22.87 23.9246 22.9688 23.6861 22.9688 23.4375C22.9688 23.1889 22.87 22.9504 22.6942 22.7746C22.5183 22.5988 22.2799 22.5 22.0312 22.5C21.037 22.4989 20.0839 22.1034 19.3808 21.4004C18.6778 20.6974 18.2824 19.7442 18.2812 18.75V17.8125H25.3125C25.8096 17.8119 26.2862 17.6142 26.6377 17.2627C26.9892 16.9112 27.1869 16.4346 27.1875 15.9375V8.4375C27.1869 7.94039 26.9892 7.46381 26.6377 7.1123C26.2862 6.7608 25.8096 6.56307 25.3125 6.5625H18.2812C17.7841 6.56307 17.3076 6.7608 16.9561 7.1123C16.6045 7.46381 16.4068 7.94039 16.4062 8.4375ZM4.6875 6.5625H11.7188C12.2159 6.56307 12.6924 6.7608 13.0439 7.1123C13.3955 7.46381 13.5932 7.94039 13.5938 8.4375V15.9375C13.5932 16.4346 13.3955 16.9112 13.0439 17.2627C12.6924 17.6142 12.2159 17.8119 11.7188 17.8125H4.6875V18.75C4.68862 19.7442 5.08406 20.6974 5.78708 21.4004C6.4901 22.1034 7.44328 22.4989 8.4375 22.5C8.68614 22.5 8.9246 22.5988 9.10041 22.7746C9.27623 22.9504 9.375 23.1889 9.375 23.4375C9.375 23.6861 9.27623 23.9246 9.10041 24.1004C8.9246 24.2762 8.68614 24.375 8.4375 24.375C6.94617 24.3733 5.51641 23.7801 4.46189 22.7256C3.40736 21.6711 2.81419 20.2413 2.8125 18.75V8.4375C2.81307 7.94039 3.0108 7.46381 3.3623 7.1123C3.71381 6.7608 4.19039 6.56307 4.6875 6.5625Z" fill="#14AAFF"/>
</svg>
