<svg width="40" height="40" viewBox="0 0 40 40" fill="none" xmlns="http://www.w3.org/2000/svg">
<path d="M21.875 11.25V25C21.8772 26.9884 22.6681 28.8948 24.0742 30.3008C25.4802 31.7069 27.3866 32.4978 29.375 32.5C29.7065 32.5 30.0245 32.3683 30.2589 32.1339C30.4933 31.8995 30.625 31.5815 30.625 31.25C30.625 30.9185 30.4933 30.6005 30.2589 30.3661C30.0245 30.1317 29.7065 30 29.375 30C28.0494 29.9985 26.7785 29.4712 25.8411 28.5339C24.9038 27.5965 24.3765 26.3256 24.375 25V23.75H33.75C34.4128 23.7492 35.0483 23.4856 35.5169 23.0169C35.9856 22.5483 36.2492 21.9128 36.25 21.25V11.25C36.2492 10.5872 35.9856 9.95175 35.5169 9.48307C35.0483 9.01439 34.4128 8.75076 33.75 8.75H24.375C23.7122 8.75076 23.0767 9.01439 22.6081 9.48307C22.1394 9.95175 21.8758 10.5872 21.875 11.25ZM6.25 8.75H15.625C16.2878 8.75076 16.9233 9.01439 17.3919 9.48307C17.8606 9.95175 18.1242 10.5872 18.125 11.25V21.25C18.1242 21.9128 17.8606 22.5483 17.3919 23.0169C16.9233 23.4856 16.2878 23.7492 15.625 23.75H6.25V25C6.25149 26.3256 6.77875 27.5965 7.71611 28.5339C8.65347 29.4712 9.92437 29.9985 11.25 30C11.5815 30 11.8995 30.1317 12.1339 30.3661C12.3683 30.6005 12.5 30.9185 12.5 31.25C12.5 31.5815 12.3683 31.8995 12.1339 32.1339C11.8995 32.3683 11.5815 32.5 11.25 32.5C9.26157 32.4978 7.35522 31.7069 5.94918 30.3008C4.54315 28.8948 3.75225 26.9884 3.75 25V11.25C3.75076 10.5872 4.01439 9.95175 4.48307 9.48307C4.95175 9.01439 5.58719 8.75076 6.25 8.75Z" fill="#D95222" fill-opacity="0.4"/>
</svg>
