<svg width="48" height="48" viewBox="0 0 48 48" fill="none" xmlns="http://www.w3.org/2000/svg">
<path d="M35.7034 14.373C35.6447 14.3054 35.5728 14.2505 35.4922 14.2116C35.4116 14.1728 35.3238 14.1508 35.2344 14.1471C35.1687 14.1471 28.6778 13.8844 24.4188 10.3519C24.301 10.2542 24.1528 10.2008 23.9997 10.2008C23.8467 10.2008 23.6985 10.2542 23.5807 10.3519C19.3217 13.8935 12.8334 14.1471 12.7651 14.1471C12.676 14.1501 12.5885 14.1713 12.5078 14.2093C12.4271 14.2473 12.355 14.3013 12.2959 14.368C12.2368 14.4347 12.1919 14.5128 12.1639 14.5975C12.136 14.6821 12.1255 14.7716 12.1332 14.8604C12.1332 14.8604 12.7415 21.8807 13.0003 24.7866C13.263 27.6491 13.7346 32.9735 23.7173 37.7251C23.8057 37.7666 23.9021 37.7881 23.9997 37.7881C24.0974 37.7881 24.1938 37.7666 24.2822 37.7251C34.2662 32.9735 34.7431 27.6491 34.9992 24.7866C35.262 21.8807 35.8663 14.8604 35.8663 14.8604C35.8733 14.7724 35.8624 14.6839 35.8344 14.6001C35.8065 14.5164 35.7619 14.4392 35.7034 14.373ZM33.6908 24.6763C33.4596 27.2498 33.0339 32.0158 23.9997 36.4075C14.9655 32.0158 14.5412 27.2498 14.3087 24.6763C14.0985 22.3116 13.6519 17.2408 13.4995 15.42C17.2676 15.135 20.8918 13.8518 23.9997 11.7023C27.1077 13.8518 30.7319 15.135 34.5 15.42C34.3424 17.2408 33.901 22.3156 33.6908 24.6763ZM23.0644 25.2609L26.4077 21.2686C26.5196 21.1348 26.68 21.0509 26.8537 21.0354C27.0273 21.0199 27.2001 21.074 27.3339 21.1858C27.4677 21.2976 27.5515 21.4581 27.5671 21.6317C27.5826 21.8054 27.5285 21.9782 27.4166 22.112L23.5478 26.7296C23.4862 26.8035 23.4091 26.8631 23.3219 26.9039C23.2347 26.9448 23.1397 26.966 23.0434 26.966H23.0316C22.9333 26.964 22.8367 26.9399 22.7489 26.8956C22.6611 26.8513 22.5844 26.7878 22.5245 26.7099L20.5684 24.1744C20.5124 24.1065 20.4707 24.0281 20.4456 23.9437C20.4206 23.8593 20.4127 23.7708 20.4225 23.6833C20.4324 23.5959 20.4597 23.5113 20.5028 23.4346C20.546 23.3579 20.6041 23.2907 20.6737 23.2369C20.7434 23.1831 20.8231 23.1438 20.9083 23.1214C20.9934 23.0991 21.0821 23.094 21.1692 23.1066C21.2563 23.1192 21.34 23.1491 21.4153 23.1947C21.4906 23.2402 21.556 23.3005 21.6075 23.3718L23.0644 25.2609Z" fill="url(#paint0_linear_1436:2089)"/>
<circle cx="24" cy="24" r="23" fill="url(#paint1_linear_1436:2089)" fill-opacity="0.1" stroke="url(#paint2_linear_1436:2089)" stroke-width="2"/>
<defs>
<linearGradient id="paint0_linear_1436:2089" x1="10.3533" y1="23.7822" x2="37.4738" y2="23.7822" gradientUnits="userSpaceOnUse">
<stop offset="0.09375" stop-color="#00C6FF"/>
<stop offset="1" stop-color="#0072FF"/>
</linearGradient>
<linearGradient id="paint1_linear_1436:2089" x1="-3.5942" y1="23.6308" x2="51.2464" y2="23.6308" gradientUnits="userSpaceOnUse">
<stop offset="0.09375" stop-color="#00C6FF"/>
<stop offset="1" stop-color="#0072FF"/>
</linearGradient>
<linearGradient id="paint2_linear_1436:2089" x1="-3.5942" y1="23.6308" x2="51.2464" y2="23.6308" gradientUnits="userSpaceOnUse">
<stop offset="0.09375" stop-color="#00C6FF"/>
<stop offset="1" stop-color="#0072FF"/>
</linearGradient>
</defs>
</svg>
