<svg width="16" height="14" viewBox="0 0 16 14" fill="none" xmlns="http://www.w3.org/2000/svg">
<path d="M15.5 2.34991C14.9363 2.59448 14.3401 2.75616 13.73 2.82991C14.3736 2.4454 14.856 1.8405 15.0875 1.12741C14.4827 1.48746 13.8206 1.74114 13.13 1.87741C12.6684 1.37684 12.0537 1.04364 11.3824 0.930052C10.711 0.816468 10.0209 0.928932 9.42034 1.24981C8.81978 1.57068 8.3427 2.08181 8.06393 2.70304C7.78516 3.32427 7.72047 4.02046 7.88 4.68241C6.65707 4.62056 5.46083 4.30213 4.36899 3.74781C3.27715 3.19349 2.31413 2.41568 1.5425 1.46491C1.27185 1.93754 1.12964 2.47278 1.13 3.01741C1.12904 3.5232 1.25316 4.02138 1.49132 4.46759C1.72947 4.9138 2.07426 5.2942 2.495 5.57491C2.00598 5.56161 1.52741 5.43039 1.1 5.19241V5.22991C1.10367 5.93858 1.352 6.62423 1.80299 7.17089C2.25398 7.71754 2.87994 8.09164 3.575 8.22991C3.30744 8.31134 3.02966 8.35427 2.75 8.35741C2.55642 8.35515 2.36332 8.3376 2.1725 8.30491C2.37043 8.91452 2.75347 9.44727 3.26831 9.82903C3.78315 10.2108 4.40418 10.4226 5.045 10.4349C3.9629 11.2864 2.62691 11.7511 1.25 11.7549C0.999301 11.7557 0.748802 11.7407 0.5 11.7099C1.90582 12.6176 3.54411 13.0995 5.2175 13.0974C6.37227 13.1094 7.51785 12.8912 8.58734 12.4555C9.65682 12.0198 10.6288 11.3753 11.4464 10.5598C12.264 9.74424 12.911 8.77396 13.3494 7.70559C13.7879 6.63723 14.009 5.49221 14 4.33741C14 4.20991 14 4.07491 14 3.93991C14.5885 3.50102 15.0961 2.96298 15.5 2.34991Z" fill="#FEFEFE"/>
</svg>
