<svg width="18" height="18" viewBox="0 0 18 18" fill="none" xmlns="http://www.w3.org/2000/svg">
<g clip-path="url(#clip0)">
<path d="M9.3164 3.375C11.6121 3.375 13.4894 3.41367 15.2262 3.49102H15.2754C16.0875 3.49102 16.7519 4.26445 16.7519 5.21719V5.25586L16.7555 5.29453C16.8363 6.48984 16.875 7.73086 16.875 8.98242C16.8785 10.234 16.8363 11.475 16.7555 12.6703L16.7519 12.709V12.7477C16.7519 13.2328 16.5867 13.6828 16.2809 14.0168C16.0066 14.3191 15.648 14.4879 15.2754 14.4879H15.2191C13.3594 14.5758 11.3941 14.6215 9.36913 14.6215H8.99648H8.99999H8.61679C6.58476 14.6215 4.61953 14.5758 2.77382 14.4914H2.71757C2.34492 14.4914 1.98984 14.3227 1.71562 14.0203C1.41328 13.6863 1.24453 13.2363 1.24453 12.7512V12.7125L1.24101 12.6738C1.15663 11.475 1.11796 10.234 1.12499 8.99297V8.98594C1.12148 7.74492 1.16015 6.50742 1.24101 5.30859L1.24453 5.26992V5.23125C1.24453 4.275 1.90546 3.49805 2.71757 3.49805H2.76679C4.50703 3.41719 6.38437 3.38203 8.68007 3.38203H9.3164V3.375ZM9.3164 2.25H8.68359C6.65859 2.25 4.66874 2.27813 2.72109 2.36602C1.28671 2.36602 0.123041 3.64219 0.123041 5.22422C0.0351505 6.48281 -0.00352137 7.73438 -5.7435e-06 8.98945C-0.00352137 10.2445 0.0316349 11.4961 0.119526 12.7512C0.119526 14.3332 1.2832 15.6199 2.71757 15.6199C4.64413 15.7113 6.60937 15.7535 8.61679 15.7535H9.37617C11.3836 15.7535 13.3488 15.7113 15.2789 15.6199C16.7168 15.6199 17.8805 14.3332 17.8805 12.7512C17.9648 11.4961 18.0035 10.241 18 8.98594C18.0035 7.73086 17.9648 6.4793 17.8805 5.2207C17.8805 3.63867 16.7168 2.36953 15.2789 2.36953C13.3312 2.27813 11.3449 2.25 9.3164 2.25Z" fill="#FEFEFE"/>
<path d="M7.27734 12.4384V5.53369L12.375 8.98604L7.27734 12.4384Z" fill="#FEFEFE"/>
</g>
<defs>
<clipPath id="clip0">
<rect width="18" height="18" fill="white"/>
</clipPath>
</defs>
</svg>
