<svg width="117" height="95" viewBox="0 0 117 95" fill="none" xmlns="http://www.w3.org/2000/svg">
<path d="M111.155 31H40.1692C37.3188 31 35 33.3188 35 36.1692V89.8308C35 92.6812 37.3188 95 40.1692 95H111.154C114.005 95 116.324 92.6812 116.324 89.8308V36.1692C116.324 33.3188 114.005 31 111.155 31ZM40.1692 33.4615H111.154C112.648 33.4615 113.862 34.6759 113.862 36.1692V42.5487H37.4615V36.1692C37.4615 34.6759 38.6767 33.4615 40.1692 33.4615ZM111.155 92.5385H40.1692C38.6759 92.5385 37.4615 91.3241 37.4615 89.8308V45.0103H113.862V89.8308C113.863 91.3241 112.648 92.5385 111.155 92.5385Z" fill="#1E3696"/>
<path d="M46.8937 39.4487C47.691 38.6515 47.691 37.359 46.8937 36.5617C46.0965 35.7645 44.804 35.7645 44.0067 36.5617C43.2095 37.359 43.2095 38.6515 44.0067 39.4487C44.804 40.246 46.0965 40.246 46.8937 39.4487Z" fill="#00C6FF"/>
<path d="M54.5085 39.9867C55.6057 39.7276 56.2852 38.6281 56.0261 37.5308C55.767 36.4336 54.6675 35.7541 53.5702 36.0132C52.473 36.2723 51.7935 37.3718 52.0526 38.4691C52.3117 39.5663 53.4112 40.2457 54.5085 39.9867Z" fill="#00C6FF"/>
<path d="M63.0959 39.9862C64.1932 39.7271 64.8726 38.6276 64.6135 37.5304C64.3544 36.4331 63.2549 35.7537 62.1577 36.0128C61.0604 36.2719 60.381 37.3714 60.6401 38.4686C60.8992 39.5659 61.9987 40.2453 63.0959 39.9862Z" fill="#00C6FF"/>
<path d="M89.1417 59.3447C87.1569 56.4649 84.2479 54.2589 80.9498 53.1332C80.0899 52.8412 79.2045 52.62 78.3197 52.4762C77.4474 52.3332 76.5539 52.2602 75.664 52.2602C75.6122 52.2602 75.5611 52.2609 75.5093 52.2623C70.1862 52.3127 65.2151 54.9509 62.1864 59.3439C60.3001 62.0784 59.3029 65.286 59.3029 68.6198C59.3029 71.9412 60.2935 75.1393 62.1659 77.8658C65.191 82.2785 70.1702 84.9284 75.5085 84.9787C75.5604 84.9802 75.6122 84.9809 75.6633 84.9809C76.5546 84.9809 77.4496 84.9079 78.3219 84.7656C79.2074 84.6218 80.0921 84.4006 80.9513 84.1079C84.2603 82.9779 87.1766 80.7609 89.1614 77.8651C91.0338 75.1378 92.0237 71.9412 92.0237 68.6198C92.0237 65.286 91.0265 62.0784 89.1417 59.3447ZM89.7921 67.5263H84.5888C84.5253 65.7152 84.3041 63.953 83.9347 62.3011H88.3504C89.1636 63.9289 89.6527 65.697 89.7921 67.5263ZM76.7575 54.6523C77.0371 54.7552 77.3182 54.8991 77.5948 55.0823C78.9387 55.9743 80.1498 57.7547 81.0192 60.1111H76.7575V54.6523ZM74.5676 54.6501V60.1111H70.3074C70.9542 58.3592 71.7937 56.9131 72.7441 55.9203C73.3354 55.3027 73.9457 54.8793 74.5676 54.6501ZM74.5676 62.3011V67.5263H68.927C68.9956 65.6992 69.238 63.9333 69.6402 62.3011H74.5676ZM74.5676 69.7163V74.9415H69.6402C69.238 73.31 68.9964 71.5434 68.927 69.7163H74.5676ZM74.5676 77.1307V82.5917C73.9427 82.3618 73.3303 81.9354 72.7368 81.3142C71.7886 80.3215 70.952 78.8783 70.3074 77.1307H74.5676ZM77.5956 82.1596C77.3182 82.3428 77.0379 82.4873 76.7575 82.5902V77.1307H81.0177C80.1491 79.4878 78.9387 81.2675 77.5956 82.1596ZM76.7575 74.9407V69.7155H82.3974C82.3281 71.5427 82.0864 73.3085 81.6842 74.9407H76.7575ZM76.7575 67.5263V62.3011H81.6849C82.0872 63.9326 82.3288 65.6984 82.3974 67.5263H76.7575ZM86.9948 60.1111H83.3369C83.2807 59.9389 83.223 59.7688 83.1632 59.6001C82.5996 58.0117 81.9032 56.643 81.0988 55.5305C83.4201 56.4984 85.475 58.0935 86.9948 60.1111ZM70.2308 55.5334C69.4219 56.6539 68.7182 58.0336 68.1627 59.5994C68.1029 59.768 68.0452 59.9389 67.9883 60.1111H64.3332C65.8742 58.0621 67.9189 56.4941 70.2308 55.5334ZM62.9762 62.3011H67.3911C67.0218 63.953 66.7998 65.7152 66.7363 67.5263H61.533C61.6732 65.697 62.1623 63.9297 62.9762 62.3011ZM61.5337 69.7163H66.7363C66.7998 71.5273 67.0218 73.2888 67.3911 74.9415H62.9762C62.163 73.3129 61.6732 71.5449 61.5337 69.7163ZM64.334 77.1307H67.9897C68.0423 77.2927 68.097 77.4526 68.1525 77.611C68.7095 79.19 69.4168 80.5806 70.2308 81.7084C67.9189 80.7492 65.875 79.1812 64.334 77.1307ZM81.098 81.7121C81.9076 80.5923 82.6076 79.2133 83.1726 77.611C83.2289 77.4526 83.2829 77.2928 83.3354 77.1314H86.9919C85.4728 79.1491 83.4194 80.7441 81.098 81.7121ZM88.349 74.9407H83.934C84.3034 73.2888 84.5246 71.5266 84.5888 69.7155H89.7921C89.652 71.5449 89.1629 73.3129 88.349 74.9407Z" fill="#00C6FF"/>
<rect x="84.8528" y="42.4264" width="60" height="60" rx="20" transform="rotate(135 84.8528 42.4264)" fill="url(#paint0_linear)" fill-opacity="0.14"/>
<defs>
<linearGradient id="paint0_linear" x1="86.3528" y1="43.9264" x2="148.853" y2="106.426" gradientUnits="userSpaceOnUse">
<stop offset="0.394611" stop-color="#00AFD2"/>
<stop offset="1" stop-color="#3E468D"/>
</linearGradient>
</defs>
</svg>
