<svg width="143" height="21" viewBox="0 0 143 21" fill="none" xmlns="http://www.w3.org/2000/svg">
<path d="M34.1413 2.60303C36.3742 2.60303 38.2852 3.39218 39.8741 4.97046C40.8118 5.91884 41.4736 6.98401 41.8558 8.16949H43.25C42.8325 6.6089 42.0221 5.23232 40.8189 4.03622C38.9858 2.19254 36.7635 1.27246 34.1554 1.27246C31.5474 1.27246 29.3286 2.19254 27.5026 4.03622C25.6518 5.8693 24.7211 8.09164 24.7141 10.6997C24.7141 13.2936 25.6341 15.5159 27.4778 17.3632C29.3286 19.2068 31.5509 20.1269 34.1413 20.1269C36.7423 20.1269 38.9646 19.2068 40.8047 17.3632C42.0079 16.16 42.8183 14.7834 43.2359 13.2299H41.8558C41.4736 14.4225 40.8118 15.4912 39.8741 16.4289C38.2887 18.0072 36.3778 18.7964 34.1413 18.7964C31.9083 18.7964 29.9974 18.0072 28.4085 16.4289C26.8302 14.8436 26.0411 12.9326 26.0411 10.6962C26.0411 8.4632 26.8302 6.55228 28.4085 4.96339C29.9868 3.39218 31.8977 2.60303 34.1413 2.60303Z" fill="black" fill-opacity="0.9" stroke="black" stroke-opacity="0.9" stroke-width="0.530812" stroke-miterlimit="10"/>
<path d="M57.0581 1.2583C54.4571 1.2583 52.2348 2.17837 50.3946 4.02206C48.5509 5.86575 47.6273 8.08454 47.6167 10.6855C47.6167 13.2865 48.5368 15.5088 50.3805 17.349C52.2242 19.1927 54.4429 20.1128 57.0439 20.1128C59.6449 20.1128 61.8672 19.1927 63.7074 17.349C65.5511 15.5053 66.4712 13.2865 66.4712 10.6855C66.4782 8.08454 65.5617 5.86221 63.7215 4.02206C61.8814 2.18191 59.6591 1.2583 57.0581 1.2583ZM62.7767 16.4183C61.1913 17.9966 59.2804 18.7857 57.0439 18.7857C54.811 18.7857 52.9001 17.9966 51.3112 16.4183C49.7329 14.8329 48.9437 12.922 48.9437 10.6855C48.9437 8.45257 49.7329 6.54166 51.3112 4.95276C52.8965 3.37447 54.8074 2.58533 57.0439 2.58533C59.2769 2.58533 61.1878 3.37447 62.7767 4.95276C64.355 6.53812 65.1441 8.44904 65.1441 10.6855C65.1406 12.922 64.355 14.8329 62.7767 16.4183Z" fill="black" fill-opacity="0.9" stroke="black" stroke-opacity="0.9" stroke-width="0.530812" stroke-miterlimit="10"/>
<path d="M88.3792 5.82683C87.9864 5.18631 87.5086 4.58473 86.946 4.02206C85.1023 2.17837 82.8835 1.2583 80.2825 1.2583C77.6815 1.2583 75.4592 2.17837 73.6155 4.02206C71.7718 5.86575 70.8517 8.08454 70.8517 10.6855C70.8588 13.2865 71.786 15.5088 73.6261 17.349C75.4698 19.1927 77.6886 20.1128 80.2931 20.1128C82.8941 20.1128 85.1164 19.1927 86.9566 17.349C88.7967 15.5053 89.7168 13.2865 89.7062 10.6855V1.2583H88.3756V5.82683H88.3792ZM86.0117 16.4183C84.4264 17.9966 82.5155 18.7857 80.279 18.7857C78.046 18.7857 76.1351 17.9966 74.5462 16.4183C72.9679 14.8329 72.1788 12.922 72.1788 10.6855C72.1788 8.45257 72.9679 6.54166 74.5462 4.95276C76.1316 3.37447 78.0425 2.58533 80.279 2.58533C82.5119 2.58533 84.4228 3.37447 86.0117 4.95276C87.59 6.53812 88.3792 8.44904 88.3792 10.6855C88.3792 12.922 87.59 14.8329 86.0117 16.4183Z" fill="black" fill-opacity="0.9" stroke="black" stroke-opacity="0.9" stroke-width="0.530812" stroke-miterlimit="10"/>
<path d="M96.328 4.89258H94.9833V19.8969H96.328V4.89258Z" fill="black" fill-opacity="0.9" stroke="black" stroke-opacity="0.9" stroke-width="0.530812" stroke-miterlimit="10"/>
<path d="M96.328 1.2583H94.9833V3.40631H96.328V1.2583Z" fill="black" fill-opacity="0.9" stroke="black" stroke-opacity="0.9" stroke-width="0.530812" stroke-miterlimit="10"/>
<path d="M111.026 1.2583C108.425 1.2583 106.203 2.17837 104.363 4.02206C103.8 4.58473 103.322 5.18631 102.929 5.82683V1.2583H101.599V10.6855C101.592 13.2865 102.508 15.5088 104.348 17.349C106.189 19.1891 108.411 20.1128 111.012 20.1128C113.613 20.1128 115.835 19.1927 117.679 17.349C119.523 15.5053 120.446 13.2865 120.453 10.6855C120.453 8.08454 119.533 5.86221 117.69 4.02206C115.846 2.18191 113.631 1.2583 111.026 1.2583ZM116.759 16.4183C115.173 17.9966 113.263 18.7857 111.026 18.7857C108.793 18.7857 106.882 17.9966 105.293 16.4183C103.715 14.8329 102.926 12.922 102.926 10.6855C102.926 8.45257 103.715 6.54166 105.293 4.95276C106.879 3.37447 108.79 2.58533 111.026 2.58533C113.259 2.58533 115.17 3.37447 116.759 4.95276C118.337 6.53812 119.126 8.44904 119.126 10.6855C119.126 12.922 118.337 14.8329 116.759 16.4183Z" fill="black" fill-opacity="0.9" stroke="black" stroke-opacity="0.9" stroke-width="0.530812" stroke-miterlimit="10"/>
<path d="M140.712 1.51672V10.6892C140.676 12.8796 139.976 14.7481 138.599 16.291C137.219 17.8339 135.559 18.6053 133.624 18.6053C131.688 18.6053 130.032 17.8304 128.659 16.2768C127.286 14.7233 126.585 12.8478 126.56 10.6467V1.51318H125.269V10.6467C125.294 13.2477 126.122 15.4665 127.749 17.2995C129.377 19.1432 131.341 20.0633 133.634 20.0633C135.92 20.0633 137.877 19.1468 139.505 17.3137C141.133 15.4806 141.965 13.2654 142 10.675V1.51672H140.712Z" fill="black" fill-opacity="0.9" stroke="black" stroke-opacity="0.9" stroke-width="0.530812" stroke-miterlimit="10"/>
<path d="M8.79056 1.00464L1.47597 5.14851C1.44412 5.16621 1.41581 5.1839 1.3875 5.20513C1.17517 5.34668 1.00531 5.53069 0.877916 5.75364L0.838989 5.82441L2.27218 6.63479L8.22436 3.26236C8.56762 3.06773 8.82595 2.75631 8.95334 2.38121C9.10197 1.94948 9.05597 1.47175 8.82949 1.07541L8.79056 1.00464Z" fill="black" fill-opacity="0.9"/>
<path d="M18.6334 5.74901C18.5521 5.60746 18.4494 5.47651 18.3327 5.36327C18.2937 5.32789 18.2513 5.29251 18.2088 5.26066C18.1522 5.21819 18.0956 5.17926 18.0389 5.14742L10.7208 1L10.6819 1.07078C10.4554 1.47066 10.4129 1.94485 10.558 2.37658C10.6819 2.74107 10.9331 3.04893 11.2764 3.25064L17.2392 6.63015L18.6724 5.81623L18.6334 5.74901Z" fill="black" fill-opacity="0.9"/>
<path d="M0.904361 7.37683L0.91144 7.39453L0.918519 7.4016C0.929136 7.41575 0.936214 7.42991 0.94683 7.44406C0.97514 7.48653 1.00345 7.52546 1.0353 7.56085L1.07423 7.60685C1.09192 7.62455 1.10961 7.64577 1.1273 7.66346L1.15561 7.69178C1.18392 7.72009 1.20869 7.74486 1.237 7.76609C1.26178 7.78732 1.29009 7.80856 1.31132 7.82271C1.32548 7.83333 1.33609 7.8404 1.35025 7.85102L1.41041 7.89349C1.41748 7.89703 1.42456 7.9041 1.43164 7.90764C1.44933 7.91825 1.46349 7.92534 1.48118 7.93595L8.79578 12.0798L8.8347 12.009C9.06118 11.6092 9.10365 11.1314 8.95502 10.6997C8.82762 10.3281 8.56929 10.0167 8.22604 9.8221L0.918519 5.6853L0.879593 5.75608C0.600032 6.25151 0.600032 6.84248 0.879593 7.33436C0.88667 7.34498 0.897284 7.35913 0.904361 7.37683Z" fill="black" fill-opacity="0.9"/>
<path d="M8.2403 13.927L0.918625 9.77954L0.879699 9.85032C0.45151 10.6041 0.713379 11.5772 1.45652 12.0196L8.79235 16.1741L8.83127 16.1033C9.05775 15.7034 9.10021 15.2292 8.95159 14.7975C8.83127 14.4295 8.57648 14.1216 8.2403 13.927Z" fill="black" fill-opacity="0.9"/>
<path d="M8.45691 18.1772H8.50645L0.922904 13.8811L0.883977 13.9519C0.671652 14.3235 0.618574 14.7587 0.731814 15.1692C0.845054 15.5832 1.114 15.9265 1.49972 16.1424L6.07532 18.7363L8.79662 20.2792L8.83555 20.2084C9.06203 19.8085 9.10803 19.3343 8.95587 18.899C8.86032 18.6124 8.68339 18.3647 8.45691 18.1772Z" fill="black" fill-opacity="0.9"/>
<path d="M18.5971 9.77954L11.2896 13.9163L11.2755 13.9234C10.9393 14.118 10.6845 14.4259 10.5606 14.794C10.412 15.2257 10.458 15.7034 10.6809 16.1033L10.7199 16.1741L17.716 12.2142L18.038 12.0302C18.8024 11.5949 19.0713 10.6147 18.636 9.84678L18.5971 9.77954Z" fill="black" fill-opacity="0.9"/>
<path d="M18.5969 13.8811L11.6008 17.841L11.1832 18.0781L11.1867 18.0816C10.893 18.2762 10.6736 18.5629 10.5568 18.8955C10.4082 19.3272 10.4542 19.805 10.6772 20.2048L10.7161 20.2756L18.0236 16.1388L18.0307 16.1353C18.7986 15.7 19.0675 14.7198 18.6323 13.9519L18.5969 13.8811Z" fill="black" fill-opacity="0.9"/>
<path d="M10.7199 12.0763L17.9637 7.97487C17.9849 7.96426 18.0097 7.95011 18.0345 7.93595C18.0663 7.91826 18.0946 7.90056 18.13 7.87933C18.1689 7.85456 18.2043 7.82979 18.2397 7.79794H18.2609L18.2751 7.76963C18.314 7.73778 18.3494 7.70593 18.3813 7.67055C18.406 7.64578 18.4308 7.61747 18.4556 7.59269C18.5263 7.5113 18.5865 7.42283 18.636 7.33436C18.9156 6.83894 18.9156 6.24797 18.636 5.75608L18.5971 5.6853L11.279 9.82919C10.9428 10.0238 10.6845 10.3352 10.5606 10.7033C10.412 11.1385 10.458 11.6127 10.6809 12.0126L10.7199 12.0763Z" fill="black" fill-opacity="0.9"/>
</svg>
