<svg width="119" height="17" viewBox="0 0 119 17" fill="none" xmlns="http://www.w3.org/2000/svg">
<path d="M27.9461 1.52109C29.8104 1.52109 31.4059 2.17996 32.7325 3.49771C33.5155 4.28954 34.068 5.17887 34.3871 6.16866H35.5512C35.2026 4.86569 34.526 3.71634 33.5214 2.71769C31.9909 1.17835 30.1355 0.410156 27.9579 0.410156C25.7804 0.410156 23.9279 1.17835 22.4033 2.71769C20.858 4.24817 20.081 6.10366 20.0751 8.28119C20.0751 10.4469 20.8433 12.3024 22.3826 13.8447C23.9279 15.384 25.7833 16.1522 27.9461 16.1522C30.1177 16.1522 31.9732 15.384 33.5096 13.8447C34.5142 12.8401 35.1908 11.6908 35.5394 10.3937H34.3871C34.068 11.3894 33.5155 12.2817 32.7325 13.0647C31.4089 14.3824 29.8134 15.0413 27.9461 15.0413C26.0818 15.0413 24.4863 14.3824 23.1597 13.0647C21.8419 11.741 21.183 10.1455 21.183 8.27823C21.183 6.41389 21.8419 4.81841 23.1597 3.4918C24.4774 2.17996 26.0729 1.52109 27.9461 1.52109Z" fill="white" stroke="white" stroke-width="0.530812" stroke-miterlimit="10"/>
<path d="M47.0799 0.398193C44.9082 0.398193 43.0528 1.16639 41.5164 2.70573C39.977 4.24507 39.2059 6.0976 39.197 8.26922C39.197 10.4408 39.9652 12.2963 41.5046 13.8327C43.0439 15.3721 44.8964 16.1403 47.068 16.1403C49.2397 16.1403 51.0952 15.3721 52.6316 13.8327C54.1709 12.2934 54.9391 10.4408 54.9391 8.26922C54.945 6.0976 54.1798 4.24212 52.6434 2.70573C51.107 1.16934 49.2515 0.398193 47.0799 0.398193ZM51.8545 13.0557C50.5308 14.3734 48.9354 15.0323 47.068 15.0323C45.2037 15.0323 43.6082 14.3734 42.2816 13.0557C40.9639 11.732 40.305 10.1365 40.305 8.26922C40.305 6.40487 40.9639 4.8094 42.2816 3.48279C43.6053 2.16504 45.2007 1.50617 47.068 1.50617C48.9324 1.50617 50.5279 2.16504 51.8545 3.48279C53.1722 4.80644 53.8311 6.40192 53.8311 8.26922C53.8282 10.1365 53.1722 11.732 51.8545 13.0557Z" fill="white" stroke="white" stroke-width="0.530812" stroke-miterlimit="10"/>
<path d="M73.2306 4.21257C72.9027 3.67779 72.5038 3.17551 72.034 2.70573C70.4947 1.16639 68.6422 0.398193 66.4705 0.398193C64.2989 0.398193 62.4434 1.16639 60.9041 2.70573C59.3648 4.24507 58.5966 6.0976 58.5966 8.26922C58.6025 10.4408 59.3766 12.2963 60.913 13.8327C62.4523 15.3721 64.3048 16.1403 66.4794 16.1403C68.651 16.1403 70.5065 15.3721 72.0429 13.8327C73.5793 12.2934 74.3475 10.4408 74.3386 8.26922V0.398193H73.2277V4.21257H73.2306ZM71.254 13.0557C69.9304 14.3734 68.3349 15.0323 66.4676 15.0323C64.6032 15.0323 63.0078 14.3734 61.6811 13.0557C60.3634 11.732 59.7045 10.1365 59.7045 8.26922C59.7045 6.40487 60.3634 4.8094 61.6811 3.48279C63.0048 2.16504 64.6003 1.50617 66.4676 1.50617C68.3319 1.50617 69.9274 2.16504 71.254 3.48279C72.5718 4.80644 73.2306 6.40192 73.2306 8.26922C73.2306 10.1365 72.5718 11.732 71.254 13.0557Z" fill="white" stroke="white" stroke-width="0.530812" stroke-miterlimit="10"/>
<path d="M79.8673 3.43262H78.7446V15.9601H79.8673V3.43262Z" fill="white" stroke="white" stroke-width="0.530812" stroke-miterlimit="10"/>
<path d="M79.8673 0.398193H78.7446V2.19162H79.8673V0.398193Z" fill="white" stroke="white" stroke-width="0.530812" stroke-miterlimit="10"/>
<path d="M92.1391 0.398193C89.9675 0.398193 88.112 1.16639 86.5756 2.70573C86.1058 3.17551 85.7069 3.67779 85.379 4.21257V0.398193H84.268V8.26922C84.2621 10.4408 85.0274 12.2963 86.5638 13.8327C88.1001 15.3691 89.9556 16.1403 92.1272 16.1403C94.2989 16.1403 96.1544 15.3721 97.6937 13.8327C99.233 12.2934 100.004 10.4408 100.01 8.26922C100.01 6.0976 99.2419 4.24212 97.7026 2.70573C96.1632 1.16934 94.3137 0.398193 92.1391 0.398193ZM96.9255 13.0557C95.6019 14.3734 94.0064 15.0323 92.1391 15.0323C90.2747 15.0323 88.6792 14.3734 87.3526 13.0557C86.0349 11.732 85.376 10.1365 85.376 8.26922C85.376 6.40487 86.0349 4.8094 87.3526 3.48279C88.6763 2.16504 90.2718 1.50617 92.1391 1.50617C94.0034 1.50617 95.5989 2.16504 96.9255 3.48279C98.2433 4.80644 98.9021 6.40192 98.9021 8.26922C98.9021 10.1365 98.2433 11.732 96.9255 13.0557Z" fill="white" stroke="white" stroke-width="0.530812" stroke-miterlimit="10"/>
<path d="M116.925 0.614032V8.27234C116.895 10.1012 116.31 11.6612 115.161 12.9495C114.008 14.2377 112.623 14.8818 111.006 14.8818C109.39 14.8818 108.008 14.2347 106.861 12.9376C105.715 11.6406 105.13 10.0746 105.109 8.23688V0.611084H104.031V8.23688C104.051 10.4085 104.743 12.261 106.102 13.7915C107.461 15.3309 109.101 16.099 111.015 16.099C112.924 16.099 114.558 15.3338 115.917 13.8033C117.276 12.2729 117.97 10.4233 118 8.26052V0.614032H116.925Z" fill="white" stroke="white" stroke-width="0.530812" stroke-miterlimit="10"/>
<path d="M0.760217 3.80005L6.70853 0.43021C6.8286 0.696052 6.84431 1.00045 6.74875 1.27801L6.74851 1.27871C6.65613 1.55073 6.46905 1.77625 6.22013 1.91739L1.3377 4.68372L0.386225 4.14573C0.470429 4.02461 0.573985 3.9228 0.697284 3.8406L0.697436 3.84083L0.7053 3.83493C0.720981 3.82317 0.737495 3.81268 0.75893 3.80077L0.758933 3.80078L0.760217 3.80005Z" fill="white" stroke="white" stroke-width="0.353875"/>
<path d="M14.784 4.14018L13.834 4.6797L8.94409 1.90826C8.69401 1.76095 8.51281 1.53785 8.42344 1.27507C8.32986 0.996367 8.34403 0.69376 8.4637 0.426532L14.4146 3.79909L14.4151 3.79937C14.4531 3.82075 14.4936 3.8483 14.5375 3.88125C14.5674 3.90367 14.5978 3.92891 14.6259 3.95439C14.684 4.01098 14.7373 4.0735 14.784 4.14018Z" fill="white" stroke="white" stroke-width="0.353875"/>
<path d="M0.355149 5.42963C0.361334 5.43845 0.366159 5.44618 0.36882 5.45045C0.369033 5.45079 0.369233 5.45111 0.369418 5.4514C0.371899 5.45537 0.372875 5.45687 0.373101 5.45722L0.378645 5.46462L0.378418 5.46477C0.399798 5.49684 0.418072 5.52149 0.436579 5.54206L0.440199 5.54608L0.440136 5.54613L0.468395 5.57953C0.476636 5.58803 0.48419 5.59634 0.489725 5.60243L0.490634 5.60343C0.498596 5.61219 0.50311 5.6171 0.506994 5.62098L0.507006 5.621L0.530631 5.64463C0.530635 5.64463 0.530639 5.64463 0.530643 5.64464C0.556012 5.67001 0.567825 5.68138 0.579634 5.69023L0.588866 5.69716L0.588621 5.69744C0.604022 5.71064 0.621993 5.72405 0.633667 5.73184L0.641847 5.73729L0.641683 5.73751L0.654594 5.74688L0.654991 5.74716C0.659537 5.75041 0.665347 5.75456 0.672004 5.75951L0.714345 5.78941C0.717814 5.79157 0.72069 5.79349 0.722883 5.795C0.723917 5.79571 0.724927 5.79642 0.725886 5.7971L0.727278 5.79779L0.727153 5.798C0.728037 5.79864 0.728863 5.79924 0.729605 5.79978C0.733263 5.80192 0.737086 5.80406 0.742609 5.80713L0.743206 5.80746C0.749177 5.81078 0.757229 5.81525 0.766314 5.82066L6.71246 9.18928C6.83211 8.92159 6.84592 8.61697 6.75013 8.33874L6.75006 8.33853C6.65775 8.06929 6.47065 7.84361 6.22162 7.70238L0.355149 5.42963ZM0.355149 5.42963C0.348317 5.41453 0.341135 5.40217 0.335446 5.39306C0.3319 5.38739 0.328649 5.38254 0.326368 5.37918L0.325536 5.37796C0.144303 5.0548 0.128685 4.67416 0.279568 4.33857L6.22152 7.70232L0.355149 5.42963Z" fill="white" stroke="white" stroke-width="0.353875"/>
<path d="M6.70964 12.6075L0.745677 9.22997C0.240159 8.92797 0.043152 8.28525 0.279586 7.75679L6.23273 11.129C6.47666 11.2704 6.66001 11.493 6.74641 11.7573L6.74639 11.7573L6.74728 11.7599C6.84304 12.038 6.82929 12.3403 6.70964 12.6075Z" fill="white" stroke="white" stroke-width="0.353875"/>
<path d="M0.28278 11.1811L6.31118 14.5962L6.38871 14.6604C6.55391 14.7972 6.68163 14.9768 6.7503 15.1828L6.75028 15.1828L6.75113 15.1853C6.84893 15.465 6.83367 15.7673 6.71333 16.035L4.60039 14.837L4.60038 14.837L0.780095 12.6713L0.780096 12.6713L0.779244 12.6708C0.497828 12.5134 0.304166 12.2652 0.222359 11.9661L0.222256 11.9657C0.149825 11.7031 0.171232 11.4272 0.28278 11.1811Z" fill="white" stroke="white" stroke-width="0.353875"/>
<path d="M14.1444 9.39183L8.46363 12.6072C8.34524 12.3387 8.32991 12.0341 8.42531 11.757L8.42571 11.7558C8.51459 11.4917 8.69706 11.2698 8.93898 11.1283L8.94578 11.1249L8.94589 11.1251L8.95382 11.1206L14.897 7.75614C15.1376 8.29519 14.9339 8.94173 14.4135 9.23806L14.4133 9.23819L14.145 9.39147L14.1444 9.39183Z" fill="white" stroke="white" stroke-width="0.353875"/>
<path d="M9.2138 14.3973L14.8934 11.1826C15.1341 11.7204 14.932 12.3656 14.4115 12.6632L14.4098 12.6641L14.4097 12.6639L14.4019 12.6683L8.46045 16.0318C8.34213 15.7634 8.32676 15.459 8.42197 15.182C8.50711 14.9398 8.66645 14.7324 8.87849 14.5918L8.92221 14.5629L9.21359 14.3974L9.2138 14.3973Z" fill="white" stroke="white" stroke-width="0.353875"/>
<path d="M8.94575 7.70784L14.8961 4.33844C15.0475 4.67335 15.0312 5.05676 14.8463 5.38437L14.846 5.38487C14.8107 5.44799 14.7684 5.51015 14.7198 5.56673C14.709 5.57771 14.6987 5.58875 14.6901 5.59791L14.6893 5.59879C14.6786 5.6103 14.6703 5.61909 14.6625 5.6269L14.6624 5.62673L14.6561 5.63365C14.6422 5.64918 14.626 5.66463 14.6065 5.68144H14.6016L14.5511 5.72686C14.5321 5.74396 14.512 5.75844 14.4848 5.77586C14.4763 5.78094 14.4688 5.78547 14.4619 5.78964C14.4431 5.80107 14.4288 5.80971 14.4122 5.81894L14.4122 5.81892L14.4103 5.81998C14.3884 5.83251 14.3723 5.84163 14.3599 5.84785L14.3598 5.84764L14.3518 5.85213L8.46151 9.1872C8.34508 8.9204 8.3304 8.61965 8.42546 8.34128L8.42571 8.34054C8.51501 8.07518 8.70179 7.84931 8.94575 7.70784Z" fill="white" stroke="white" stroke-width="0.353875"/>
</svg>
