<svg width="111" height="82" viewBox="0 0 111 82" fill="none" xmlns="http://www.w3.org/2000/svg">
<rect x="79.8528" y="40.426" width="56" height="56" rx="20" transform="rotate(135 79.8528 40.426)" fill="url(#paint0_linear)" fill-opacity="0.14"/>
<path d="M38.6458 74.3752C35.2702 74.3752 33.224 74.3752 33.1437 74.3753C32.6492 74.3753 33.1457 78.8752 39.1437 80.3753C41.6458 80.3753 97.1458 80.3752 103.644 80.3753C109.244 79.1753 110.641 74.3752 109.644 74.3753C109.644 74.3753 107.586 74.3753 104.146 74.3752M38.6458 74.3752C38.6458 74.3752 38.6458 34.3749 38.6458 33.3752C38.6458 32.8749 104.146 32.8749 104.146 33.3752C104.146 41.8749 104.146 74.3752 104.146 74.3752M38.6458 74.3752C52.7477 74.3752 90.051 74.3752 104.146 74.3752" stroke="#1E3696" stroke-width="2"/>
<path d="M71.1478 41.4797C66.3902 41.4797 62.5265 45.401 62.5265 50.1994C62.5265 52.8403 63.8487 54.6238 64.9955 56.3653C66.1424 58.1066 67.1763 59.8331 67.1763 62.7584C67.1747 62.8734 67.1959 62.9876 67.2389 63.0944C67.2818 63.2011 67.3454 63.2984 67.4262 63.3803C67.507 63.4622 67.6033 63.5273 67.7094 63.5717C67.8156 63.6161 67.9295 63.6389 68.0446 63.6389C68.1596 63.6389 68.2735 63.6161 68.3797 63.5717C68.4858 63.5273 68.5821 63.4622 68.6629 63.3803C68.7437 63.2984 68.8074 63.2011 68.8503 63.0944C68.8932 62.9876 68.9144 62.8734 68.9128 62.7584C68.9128 59.4042 67.6231 57.2029 66.4437 55.4123C65.2644 53.6214 64.263 52.2685 64.263 50.1994C64.263 46.3281 67.3401 43.2162 71.1478 43.2162C74.9555 43.2162 78.0327 46.3281 78.0327 50.1994C78.0327 52.2685 77.0314 53.6214 75.8519 55.4123C74.6725 57.2029 73.3829 59.4042 73.3829 62.7584C73.3812 62.8734 73.4025 62.9876 73.4454 63.0944C73.4883 63.2011 73.552 63.2984 73.6328 63.3803C73.7136 63.4622 73.8098 63.5273 73.916 63.5717C74.0221 63.6161 74.1361 63.6389 74.2511 63.6389C74.3662 63.6389 74.4801 63.6161 74.5862 63.5717C74.6924 63.5273 74.7887 63.4622 74.8694 63.3803C74.9502 63.2984 75.0139 63.2011 75.0568 63.0944C75.0997 62.9876 75.121 62.8734 75.1194 62.7584C75.1194 59.8331 76.1532 58.1066 77.3001 56.3653C78.4471 54.6238 79.7692 52.8403 79.7692 50.1994C79.7692 45.401 75.9055 41.4797 71.1478 41.4797ZM71.1343 56.328C71.0203 56.3298 70.9077 56.3539 70.8031 56.3992C70.6984 56.4445 70.6037 56.51 70.5243 56.5919C70.445 56.6738 70.3825 56.7703 70.3405 56.8764C70.2985 56.9824 70.2778 57.0958 70.2796 57.2098V62.7584C70.278 62.8734 70.2992 62.9876 70.3421 63.0944C70.385 63.2011 70.4487 63.2984 70.5295 63.3803C70.6103 63.4622 70.7066 63.5273 70.8127 63.5717C70.9189 63.6161 71.0328 63.6389 71.1478 63.6389C71.2629 63.6389 71.3768 63.6161 71.483 63.5717C71.5891 63.5273 71.6854 63.4622 71.7662 63.3803C71.8469 63.2984 71.9106 63.2011 71.9535 63.0944C71.9964 62.9876 72.0177 62.8734 72.0161 62.7584V57.2098C72.0179 57.0935 71.9963 56.978 71.9527 56.8702C71.909 56.7624 71.8441 56.6644 71.7618 56.5821C71.6796 56.4999 71.5817 56.435 71.4739 56.3914C71.3661 56.3477 71.2506 56.3262 71.1343 56.328H71.1343Z" fill="#00C6FF"/>
<path d="M68.0455 61.8901C67.8152 61.8902 67.5944 61.9817 67.4316 62.1445C67.2688 62.3073 67.1773 62.5281 67.1772 62.7584V66.5366C67.1773 66.7668 67.2688 66.9876 67.4316 67.1504C67.5944 67.3133 67.8152 67.4048 68.0455 67.4048H74.252C74.4823 67.4048 74.7031 67.3133 74.866 67.1504C75.0288 66.9876 75.1203 66.7668 75.1203 66.5366V62.7584C75.1203 62.5281 75.0288 62.3073 74.866 62.1445C74.7031 61.9817 74.4823 61.8902 74.252 61.8901H68.0455ZM68.9137 63.6266H73.3838V65.6683H68.9137V63.6266Z" fill="#2B4255"/>
<path fill-rule="evenodd" clip-rule="evenodd" d="M68.8693 69.2635C68.7543 69.2619 68.6401 69.2831 68.5333 69.326C68.4265 69.3689 68.3294 69.4326 68.2474 69.5134C68.1655 69.5942 68.1004 69.6905 68.056 69.7966C68.0116 69.9028 67.9887 70.0167 67.9887 70.1318C67.9887 70.2468 68.0116 70.3607 68.056 70.4669C68.1004 70.573 68.1655 70.6693 68.2474 70.7501C68.3294 70.8309 68.4265 70.8946 68.5333 70.9375C68.6401 70.9804 68.7543 71.0016 68.8693 71H73.4276C73.5426 71.0016 73.6569 70.9804 73.7636 70.9375C73.8704 70.8946 73.9676 70.8309 74.0495 70.7501C74.1315 70.6693 74.1965 70.573 74.2409 70.4669C74.2853 70.3607 74.3082 70.2468 74.3082 70.1318C74.3082 70.0167 74.2853 69.9028 74.2409 69.7966C74.1965 69.6905 74.1315 69.5942 74.0495 69.5134C73.9676 69.4326 73.8704 69.3689 73.7636 69.326C73.6569 69.2831 73.5426 69.2619 73.4276 69.2635H68.8693Z" fill="#2B4255"/>
<path d="M71.236 38.0101L70.2118 38.0431H70.1745H70.1337L69.5775 38.1109L68.7161 38.2184L68.9331 39.9414L69.7946 39.8356L70.3067 39.7711L71.2428 39.7366H71.3683L72.2365 39.7834L72.3315 38.0503L71.4633 38H71.314H71.2733L71.236 38.0101ZM73.722 40.0484L74.5462 40.3231L74.848 40.4221L76.0215 40.9951L76.8016 41.3751L77.5613 39.8116L76.7812 39.4316L75.5704 38.8415L75.5196 38.8173L75.4653 38.7999L75.0956 38.6748L74.2715 38.4001L73.722 40.0484ZM66.0164 39.1903L65.1855 39.5736L65.1176 39.603L65.0566 39.6465L64.3783 40.1147L63.6661 40.6097L64.653 42.0378L65.3686 41.5424L65.9791 41.1186L66.7422 40.7659L67.5324 40.403L66.8032 38.826L66.0164 39.1903ZM77.9377 42.2631L78.5448 42.8837L79.2028 43.5587L79.5657 44.0911L80.0575 44.8068L81.4887 43.8232L81.0003 43.1076L80.5933 42.5175L80.5492 42.4532L80.4984 42.4028L79.7861 41.6738L79.179 41.0495L77.9377 42.2631ZM61.6209 42.6565L60.7256 43.9114L60.6917 43.9582L60.6645 44.0087L60.5729 44.1787L60.1659 44.9452L61.6955 45.7625L62.1059 44.996L62.1771 44.8676L63.0352 43.667L63.5405 42.9615L62.1263 41.9509L61.6209 42.6565ZM80.79 46.0854L81.041 46.9163L81.2377 47.5641L81.2412 47.5883L81.4379 48.5245L81.6109 49.3756L83.3134 49.0263L83.1371 48.175L82.9404 47.2154L82.9336 47.1772L82.9201 47.1408L82.703 46.4184L82.452 45.5838L80.79 46.0854ZM59.2706 47.6319L59.1926 47.9711L58.9993 48.8156L60.695 49.2022L60.885 48.3543L60.963 48.0152L61.1563 47.1673L59.4605 46.784L59.2706 47.6319Z" fill="#1E3696"/>
<defs>
<linearGradient id="paint0_linear" x1="81.2528" y1="41.826" x2="139.586" y2="100.159" gradientUnits="userSpaceOnUse">
<stop offset="0.394611" stop-color="#00AFD2"/>
<stop offset="1" stop-color="#3E468D"/>
</linearGradient>
</defs>
</svg>
