<svg width="116" height="87" viewBox="0 0 116 87" fill="none" xmlns="http://www.w3.org/2000/svg">
<rect x="79.8528" y="40.426" width="56" height="56" rx="20" transform="rotate(135 79.8528 40.426)" fill="url(#paint0_linear)" fill-opacity="0.14"/>
<path d="M79.2603 47.4969C77.4432 44.3497 73.9022 42.6026 70.299 43.077C66.6958 43.5514 63.7261 46.1557 62.7855 49.6663C62.7438 49.8099 62.7313 49.9604 62.7486 50.109C62.7658 50.2576 62.8125 50.4014 62.886 50.5317C62.9595 50.6619 63.0582 50.7762 63.1764 50.8679C63.2946 50.9595 63.4299 51.0265 63.5743 51.0652C63.7188 51.1039 63.8696 51.1135 64.0177 51.0932C64.1659 51.0729 64.3086 51.0233 64.4374 50.9472C64.5661 50.8711 64.6784 50.7703 64.7676 50.6502C64.8569 50.5302 64.9213 50.3934 64.957 50.2481C65.664 47.6097 67.8841 45.6626 70.5922 45.3062C73.3002 44.9496 75.9475 46.2558 77.3132 48.6211C77.3858 48.7512 77.4836 48.8654 77.6008 48.9574C77.7181 49.0493 77.8524 49.117 77.996 49.1566C78.1397 49.1962 78.2897 49.2068 78.4375 49.1879C78.5853 49.169 78.7278 49.121 78.8568 49.0466C78.9859 48.9721 79.0988 48.8725 79.1891 48.754C79.2794 48.6355 79.3452 48.5002 79.3827 48.356C79.4203 48.2118 79.4288 48.0616 79.4078 47.9141C79.3867 47.7666 79.3366 47.6249 79.2603 47.4969Z" fill="#00C6FF"/>
<path fill-rule="evenodd" clip-rule="evenodd" d="M61.0801 46.4407C60.8853 46.4482 60.6957 46.5063 60.5301 46.6092C60.3644 46.7122 60.2284 46.8567 60.1354 47.0281C60.0424 47.1995 59.9956 47.3922 59.9995 47.5871C60.0035 47.7821 60.0581 47.9727 60.158 48.1402L62.4063 52.0353C62.4804 52.1631 62.579 52.275 62.6963 52.3647C62.8137 52.4543 62.9475 52.52 63.0903 52.5579C63.233 52.5958 63.3818 52.6052 63.5282 52.5856C63.6745 52.566 63.8156 52.5179 63.9433 52.4437L67.8385 50.1953C67.9726 50.1249 68.0911 50.0281 68.1868 49.9107C68.2826 49.7934 68.3536 49.658 68.3957 49.5125C68.4378 49.367 68.45 49.2144 68.4317 49.064C68.4134 48.9137 68.3649 48.7686 68.2891 48.6375C68.2133 48.5064 68.1118 48.392 67.9907 48.301C67.8696 48.2101 67.7313 48.1445 67.5842 48.1083C67.4372 48.0722 67.2843 48.0659 67.1348 48.0902C66.9853 48.1146 66.8423 48.1689 66.7143 48.25L63.7896 49.9363L62.1033 47.016C62.0023 46.8352 61.8533 46.6857 61.6728 46.5843C61.4922 46.4828 61.2871 46.433 61.0801 46.4407Z" fill="#00C6FF"/>
<path d="M62.724 57.0793C64.5411 60.2266 68.082 61.9737 71.6853 61.4993C75.2885 61.0251 78.2582 58.4207 79.1988 54.9103C79.2404 54.7666 79.253 54.6158 79.2357 54.4673C79.2185 54.3187 79.1717 54.1752 79.0983 54.0449C79.0248 53.9146 78.9261 53.8003 78.8079 53.7087C78.6897 53.617 78.5544 53.5498 78.4099 53.5111C78.2655 53.4723 78.1147 53.4631 77.9665 53.4833C77.8183 53.5036 77.6757 53.5533 77.5469 53.6293C77.4182 53.7054 77.3059 53.8063 77.2166 53.9263C77.1274 54.0463 77.063 54.1832 77.0272 54.3284C76.3203 56.9667 74.1001 58.9138 71.3921 59.2704C68.6841 59.6267 66.0368 58.3207 64.6711 55.9551C64.5985 55.8251 64.5007 55.7109 64.3835 55.6189C64.2662 55.527 64.1319 55.4592 63.9883 55.4197C63.8446 55.3801 63.6946 55.3694 63.5468 55.3884C63.399 55.4073 63.2565 55.4555 63.1275 55.53C62.9985 55.6045 62.8855 55.7038 62.7953 55.8223C62.705 55.9408 62.6392 56.0761 62.6016 56.2203C62.5641 56.3644 62.5556 56.5147 62.5766 56.6621C62.5976 56.8096 62.6477 56.9514 62.724 57.0793Z" fill="#00C6FF"/>
<path fill-rule="evenodd" clip-rule="evenodd" d="M78.5447 51.9828C78.367 51.9916 78.1939 52.0422 78.0397 52.131L74.1445 54.3794C74.0108 54.45 73.8927 54.5469 73.7972 54.6643C73.7018 54.7816 73.631 54.9172 73.5891 55.0625C73.5473 55.2078 73.5351 55.36 73.5535 55.5101C73.5719 55.6603 73.6203 55.8051 73.696 55.9361C73.7717 56.0671 73.873 56.1814 73.9939 56.2723C74.1148 56.3632 74.2528 56.429 74.3997 56.4653C74.5465 56.5016 74.6992 56.5077 74.8485 56.4837C74.9978 56.4596 75.1407 56.4056 75.2687 56.325L78.1934 54.6387L79.8797 57.559C79.9502 57.693 80.047 57.8114 80.1644 57.907C80.2817 58.0027 80.4172 58.0736 80.5626 58.1156C80.7081 58.1576 80.8605 58.1699 81.0108 58.1516C81.1611 58.1332 81.3061 58.0846 81.4372 58.0088C81.5683 57.9331 81.6827 57.8316 81.7736 57.7105C81.8646 57.5895 81.9301 57.4513 81.9663 57.3043C82.0025 57.1573 82.0087 57.0047 81.9844 56.8553C81.9602 56.7058 81.9059 56.5628 81.8251 56.4348L79.5767 52.544C79.4732 52.3643 79.3221 52.2165 79.14 52.1173C78.9578 52.0181 78.7518 51.9713 78.5447 51.9819V51.9828Z" fill="#00C6FF"/>
<path d="M38.6458 73.3752C35.2702 73.3752 33.224 73.3752 33.1437 73.3753C32.6492 73.3753 33.1457 77.8752 39.1437 79.3753C41.6458 79.3753 97.1458 79.3752 103.644 79.3753C109.244 78.1753 110.641 73.3752 109.644 73.3753C109.644 73.3753 107.586 73.3753 104.146 73.3752M38.6458 73.3752C38.6458 73.3752 38.6458 33.3749 38.6458 32.3752C38.6458 31.8749 104.146 31.8749 104.146 32.3752C104.146 40.8749 104.146 73.3752 104.146 73.3752M38.6458 73.3752C52.7477 73.3752 90.051 73.3752 104.146 73.3752" stroke="#1E3696" stroke-width="2"/>
<path d="M92.0264 85.3751C91.9994 77.8749 92.0075 50.8751 92.0264 49.3751C92.0327 48.875 114.026 48.8749 114.026 49.3751C114.026 51.8749 114.526 82.3749 114.526 85.3751C114.526 85.8749 92.0281 85.8749 92.0264 85.3751Z" fill="white" stroke="#1E3696" stroke-width="2"/>
<path d="M91.9993 79.875H114.499M91.9993 54.875H114.499" stroke="#1E3696" stroke-width="2"/>
<defs>
<linearGradient id="paint0_linear" x1="81.2528" y1="41.826" x2="139.586" y2="100.159" gradientUnits="userSpaceOnUse">
<stop offset="0.394611" stop-color="#00AFD2"/>
<stop offset="1" stop-color="#3E468D"/>
</linearGradient>
</defs>
</svg>
