<svg width="101" height="86" viewBox="0 0 101 86" fill="none" xmlns="http://www.w3.org/2000/svg">
<rect x="79.8528" y="40.4258" width="56" height="56" rx="20" transform="rotate(135 79.8528 40.4258)" fill="url(#paint0_linear)" fill-opacity="0.14"/>
<path d="M66.7143 50.2664C66.6208 50.2684 66.5284 50.2865 66.4411 50.32C64.1713 51.1888 60.6704 52.632 57.7899 52.632C57.5743 52.632 57.3675 52.7177 57.2151 52.8702C57.0626 53.0227 56.9769 53.2294 56.9769 53.4451C56.9769 64.763 61.662 70.0367 66.3046 72.9102C66.4333 72.9901 66.5818 73.0325 66.7333 73.0325C66.8848 73.0325 67.0333 72.9901 67.1621 72.9102C71.7554 70.0675 76.4897 64.7339 76.4897 53.4455C76.4897 53.2298 76.404 53.0231 76.2516 52.8706C76.0991 52.7181 75.8923 52.6324 75.6767 52.6324C71.8247 52.6324 69.0714 51.133 67.0318 50.3235C66.9308 50.2835 66.8229 50.2641 66.7143 50.2666V50.2664ZM66.7206 51.9496C68.4357 52.6576 71.1863 53.8864 74.7938 54.1092C74.6051 64.053 70.7504 68.5767 66.7333 71.1956C62.6667 68.5491 58.8539 64.0842 58.6697 54.1029C61.6734 53.8786 64.6925 52.7358 66.7206 51.9496Z" fill="#00C6FF"/>
<path fill-rule="evenodd" clip-rule="evenodd" d="M68.7931 58.8545L65.8458 61.7414L64.658 60.5758L63.5211 61.7382L65.8458 64.0185L69.9301 60.0137L68.7931 58.8545Z" fill="#00C6FF"/>
<path d="M96.0772 32H37.2809C34.9199 32 32.9993 33.9206 32.9993 36.2816V80.7284C32.9993 83.0894 34.9199 85.01 37.2809 85.01H96.0765C98.4375 85.01 100.358 83.0894 100.358 80.7284V36.2816C100.359 33.9206 98.4375 32 96.0772 32ZM37.2809 34.0388H96.0765C97.3134 34.0388 98.3192 35.0447 98.3192 36.2816V41.5656H35.0382V36.2816C35.0382 35.0447 36.0447 34.0388 37.2809 34.0388ZM96.0772 82.9712H37.2809C36.044 82.9712 35.0382 81.9653 35.0382 80.7284V43.6044H98.3192V80.7284C98.3199 81.9653 97.3134 82.9712 96.0772 82.9712Z" fill="#1E3696"/>
<path d="M42.8459 38.9976C43.5062 38.3373 43.5062 37.2667 42.8459 36.6064C42.1856 35.9461 41.115 35.9461 40.4547 36.6064C39.7943 37.2667 39.7943 38.3373 40.4547 38.9976C41.115 39.658 42.1856 39.658 42.8459 38.9976Z" fill="#00C6FF"/>
<path d="M49.1589 39.4436C50.0677 39.229 50.6305 38.3183 50.4159 37.4095C50.2013 36.5006 49.2906 35.9379 48.3818 36.1525C47.4729 36.3671 46.9102 37.2778 47.1248 38.1866C47.3394 39.0954 48.2501 39.6582 49.1589 39.4436Z" fill="#00C6FF"/>
<path d="M56.2686 39.4431C57.1774 39.2285 57.7402 38.3178 57.5256 37.409C57.311 36.5001 56.4003 35.9374 55.4915 36.152C54.5827 36.3666 54.0199 37.2773 54.2345 38.1861C54.4491 39.0949 55.3598 39.6577 56.2686 39.4431Z" fill="#00C6FF"/>
<defs>
<linearGradient id="paint0_linear" x1="81.2528" y1="41.8258" x2="139.586" y2="100.159" gradientUnits="userSpaceOnUse">
<stop offset="0.394611" stop-color="#00AFD2"/>
<stop offset="1" stop-color="#3E468D"/>
</linearGradient>
</defs>
</svg>
